<svg width="337" height="123" viewBox="0 0 337 123" fill="none" xmlns="http://www.w3.org/2000/svg">
<rect width="336.32" height="122.8" fill="none"/>
<path d="M30.2882 83.664C34.2136 85.3813 39.2429 86.24 45.3762 86.24C54.0242 86.24 60.9242 84.6453 66.0762 81.456C71.2896 78.2053 74.5709 73.452 75.9202 67.196C76.7176 63.3933 76.5642 60.1733 75.4602 57.536C74.4176 54.8987 72.3629 52.7213 69.2962 51.004C66.2296 49.2253 61.9976 47.8147 56.6002 46.772C53.4109 46.036 50.8962 45.3307 49.0562 44.656C47.2776 43.9813 46.0509 43.184 45.3762 42.264C44.7629 41.344 44.6096 40.2707 44.9162 39.044C45.3456 37.0813 46.4496 35.64 48.2282 34.72C50.0069 33.7387 52.2149 33.248 54.8522 33.248C57.1829 33.248 59.0536 33.7693 60.4642 34.812C61.8749 35.7933 62.5802 36.9587 62.5802 38.308C62.8869 38.86 63.2549 39.2587 63.6842 39.504C64.1749 39.7493 64.7269 39.872 65.3402 39.872H77.6682C78.2202 39.872 78.7109 39.688 79.1402 39.32C79.5696 38.8907 79.8149 38.4307 79.8762 37.94C80.1829 35.9773 79.8762 33.984 78.9562 31.96C78.0362 29.8747 76.5336 27.912 74.4482 26.072C72.3629 24.232 69.7562 22.76 66.6282 21.656C63.5616 20.552 60.0349 20 56.0482 20C48.3202 20 42.0336 21.656 37.1882 24.968C32.3429 28.2187 29.3069 32.6653 28.0802 38.308C27.2829 42.1107 27.4362 45.392 28.5402 48.152C29.7056 50.8507 31.7296 53.0893 34.6122 54.868C37.4949 56.5853 41.1749 57.9347 45.6522 58.916C49.0869 59.652 51.8162 60.388 53.8402 61.124C55.9256 61.7987 57.3669 62.596 58.1642 63.516C59.0229 64.3747 59.2682 65.4787 58.9002 66.828C58.5322 68.7293 57.2749 70.232 55.1282 71.336C52.9816 72.44 50.1296 72.992 46.5722 72.992C44.6096 72.992 42.9536 72.7467 41.6042 72.256C40.3162 71.704 39.3042 70.9987 38.5682 70.14C37.8322 69.2813 37.3416 68.392 37.0962 67.472C36.7282 66.9813 36.3602 66.5827 35.9922 66.276C35.6242 65.9693 35.0109 65.816 34.1522 65.816H22.3762C21.8242 65.816 21.3336 66.0307 20.9042 66.46C20.5362 66.828 20.2909 67.2573 20.1682 67.748C19.6776 70.9373 20.2602 73.9733 21.9162 76.856C23.6336 79.6773 26.4242 81.9467 30.2882 83.664Z" fill="#007BFF"/>
<path d="M80.9903 84.676C81.3583 85.1053 81.8796 85.32 82.5543 85.32H94.3303C94.9436 85.32 95.5263 85.1053 96.0783 84.676C96.6303 84.2467 96.9676 83.6947 97.0903 83.02L102.334 57.904C102.764 56.0027 103.5 54.3773 104.542 53.028C105.585 51.6173 106.842 50.5747 108.314 49.9C109.786 49.2253 111.381 48.888 113.098 48.888C115.736 48.888 117.514 49.6853 118.434 51.28C119.354 52.8133 119.508 55.0213 118.894 57.904L113.558 83.02C113.436 83.6947 113.558 84.2467 113.926 84.676C114.294 85.1053 114.816 85.32 115.49 85.32H127.358C127.972 85.32 128.524 85.1053 129.014 84.676C129.566 84.2467 129.904 83.6947 130.026 83.02L135.546 57.352C136.528 52.8747 136.497 49.1027 135.454 46.036C134.412 42.908 132.602 40.5467 130.026 38.952C127.45 37.3573 124.292 36.56 120.55 36.56C117.361 36.56 114.54 37.1427 112.086 38.308C109.694 39.412 107.517 40.9147 105.554 42.816L109.97 22.3C110.093 21.6253 109.97 21.0733 109.602 20.644C109.234 20.2147 108.744 20 108.13 20H96.3543C95.6796 20 95.0663 20.2147 94.5143 20.644C94.0236 21.0733 93.717 21.6253 93.5943 22.3L80.6223 83.02C80.4996 83.6947 80.6223 84.2467 80.9903 84.676Z" fill="#007BFF"/>
<path fill-rule="evenodd" clip-rule="evenodd" d="M196.982 102.156C197.289 102.585 197.779 102.8 198.454 102.8H209.678C210.353 102.8 210.936 102.585 211.426 102.156C211.978 101.727 212.316 101.175 212.438 100.5L216.854 80.076C217.835 82.0387 219.43 83.572 221.638 84.676C223.846 85.7187 226.514 86.24 229.642 86.24C232.709 86.24 235.499 85.7493 238.014 84.768C240.529 83.7253 242.768 82.2533 244.73 80.352C246.693 78.4507 248.349 76.1813 249.698 73.544C251.109 70.8453 252.243 67.8707 253.102 64.62C253.409 63.3933 253.654 62.32 253.838 61.4C254.083 60.48 254.298 59.4067 254.482 58.18C255.034 54.7453 255.096 51.7093 254.666 49.072C254.237 46.3733 253.317 44.104 251.906 42.264C250.557 40.3627 248.747 38.952 246.478 38.032C244.27 37.0507 241.663 36.56 238.658 36.56C235.101 36.56 232.188 37.204 229.918 38.492C227.71 39.7187 225.686 41.2827 223.846 43.184L224.49 39.78C224.613 39.1053 224.49 38.5533 224.122 38.124C223.816 37.6947 223.325 37.48 222.65 37.48H212.346C211.671 37.48 211.058 37.6947 210.506 38.124C209.954 38.5533 209.617 39.1053 209.494 39.78L196.614 100.5C196.492 101.175 196.614 101.727 196.982 102.156ZM231.482 72.624C230.133 73.4827 228.446 73.912 226.422 73.912C224.521 73.912 223.049 73.5133 222.006 72.716C220.964 71.8573 220.289 70.784 219.982 69.496C219.737 68.1467 219.737 66.7053 219.982 65.172C220.166 63.9453 220.35 62.78 220.534 61.676C220.779 60.572 221.086 59.4373 221.454 58.272C221.883 56.616 222.527 55.0827 223.386 53.672C224.306 52.2613 225.502 51.1267 226.974 50.268C228.508 49.348 230.255 48.888 232.218 48.888C234.242 48.888 235.714 49.3173 236.634 50.176C237.554 51.0347 238.106 52.2 238.29 53.672C238.474 55.144 238.443 56.7693 238.198 58.548C238.137 59.468 237.984 60.4187 237.738 61.4C237.554 62.3813 237.309 63.332 237.002 64.252C236.45 66.0307 235.714 67.656 234.794 69.128C233.936 70.6 232.831 71.7653 231.482 72.624Z" fill="#007BFF"/>
<path d="M261.463 101.788C261.709 102.463 262.199 102.8 262.935 102.8H273.699C274.497 102.8 275.141 102.585 275.631 102.156C276.183 101.788 276.613 101.359 276.919 100.868L316.019 40.24C316.387 39.5653 316.418 38.952 316.111 38.4C315.866 37.7867 315.375 37.48 314.639 37.48H303.691C302.894 37.48 302.219 37.6947 301.667 38.124C301.177 38.492 300.809 38.9213 300.563 39.412L283.727 66.184L278.575 39.412C278.514 38.9213 278.299 38.492 277.931 38.124C277.625 37.6947 277.073 37.48 276.275 37.48H266.523C265.603 37.48 264.929 37.756 264.499 38.308C264.07 38.86 263.917 39.4733 264.039 40.148L272.963 82.192L261.739 99.856C261.31 100.531 261.218 101.175 261.463 101.788Z" fill="#007BFF"/>
<path fill-rule="evenodd" clip-rule="evenodd" d="M151.84 48.6456C143.443 60.3219 143.106 74.8334 150.39 83.2883C141.106 75.2951 140.736 59.3042 149.84 46.6456C153.09 42.1261 157.127 38.6161 161.454 36.2557C156.378 38.5682 151.586 42.4363 147.84 47.6456C138.327 60.8729 139.158 77.7385 149.695 85.316C152.281 87.176 155.212 88.3036 158.303 88.7504C168.548 92.4803 181.785 87.506 189.997 76.0864C199.181 63.3162 198.724 47.1546 189.199 39.2341C189.238 35.4267 188.859 32.2737 186.935 28.2653C184.365 23.5065 181.415 21.272 177.484 20.8568C173.553 20.4417 169.887 21.6548 166.657 25.6286C163.876 29.0501 161.878 33.6942 160.97 38.7712C160.904 39.139 160.844 39.509 160.79 39.881C157.478 42.1239 154.412 45.0686 151.84 48.6456ZM186.679 37.4628C179.971 33.5175 171.356 34.0121 163.638 38.1565C164.556 33.8578 166.308 30.0212 168.597 27.2056C171.294 23.8873 174.132 23.0167 177.221 23.343C180.074 23.6443 182.404 25.1587 184.707 29.4009C186.101 32.3221 186.579 34.6861 186.679 37.4628Z" fill="#007BFF"/>
</svg>
